<svg width="22" height="19" viewBox="0 0 22 19" fill="none" xmlns="http://www.w3.org/2000/svg">
<path d="M5.30661 0C3.84729 0 2.54717 0.61026 1.56545 1.56545C0.61026 2.52064 0 3.82076 0 5.30661C0 6.76592 0.61026 8.06604 1.56545 9.04776L10.6132 18.0955L19.661 9.04776C20.6162 8.09257 21.2264 6.79246 21.2264 5.30661C21.2264 3.84729 20.6162 2.54717 19.661 1.56545C18.7058 0.61026 17.4057 0 15.9198 0C14.4605 0 13.1604 0.61026 12.1787 1.56545C11.2235 2.52064 10.6132 3.82076 10.6132 5.30661C10.6132 3.84729 10.003 2.54717 9.04776 1.56545C8.09257 0.61026 6.79246 0 5.30661 0Z" fill="black"/>
</svg>
