<svg width="28" height="47" viewBox="0 0 28 27" fill="none" xmlns="http://www.w3.org/2000/svg">
<ellipse cx="14" cy="13.5" rx="14" ry="13.5" fill="#D7ECFF"/>
<path d="M11.5 17.4749L8.60832 14.5833C8.45251 14.4275 8.24118 14.3399 8.02082 14.3399C7.80047 14.3399 7.58914 14.4275 7.43332 14.5833C7.27751 14.7391 7.18997 14.9504 7.18997 15.1708C7.18997 15.2799 7.21146 15.3879 7.25322 15.4887C7.29497 15.5895 7.35617 15.6811 7.43332 15.7583L10.9167 19.2416C11.2417 19.5666 11.7667 19.5666 12.0917 19.2416L20.9083 10.4249C21.0641 10.2691 21.1517 10.0578 21.1517 9.83744C21.1517 9.61709 21.0641 9.40576 20.9083 9.24994C20.7525 9.09413 20.5412 9.00659 20.3208 9.00659C20.1005 9.00659 19.8891 9.09413 19.7333 9.24994L11.5 17.4749Z" fill="#2287FE"/>
</svg>
