<svg width="80" height="13" viewBox="0 0 80 13" fill="none" xmlns="http://www.w3.org/2000/svg">
<path d="M6.82164 4.36151C6.78613 3.97088 6.62811 3.66726 6.34757 3.45064C6.07058 3.23047 5.67463 3.12038 5.15971 3.12038C4.8188 3.12038 4.53471 3.16477 4.30744 3.25355C4.08017 3.34233 3.90971 3.46484 3.79608 3.62109C3.68244 3.77379 3.62385 3.94957 3.62029 4.14844C3.61319 4.31179 3.64515 4.45561 3.71617 4.5799C3.79075 4.70419 3.89728 4.81428 4.03578 4.91016C4.17782 5.00249 4.34828 5.08416 4.54714 5.15518C4.746 5.22621 4.96973 5.28835 5.21831 5.34162L6.15581 5.55469C6.69558 5.67188 7.17143 5.82812 7.58336 6.02344C7.99885 6.21875 8.34686 6.45135 8.6274 6.72124C8.91149 6.99112 9.12633 7.30185 9.27193 7.65341C9.41752 8.00497 9.4921 8.39915 9.49565 8.83594C9.4921 9.52486 9.31809 10.1161 8.97363 10.6097C8.62917 11.1033 8.13379 11.4815 7.48748 11.7443C6.84473 12.0071 6.0688 12.1385 5.15971 12.1385C4.24707 12.1385 3.45162 12.0018 2.77335 11.7283C2.09508 11.4549 1.56774 11.0394 1.19132 10.4819C0.814896 9.92436 0.621359 9.21946 0.610706 8.36719H3.13556C3.15687 8.71875 3.25098 9.01172 3.41788 9.24609C3.58478 9.48047 3.81383 9.65803 4.10502 9.77876C4.39977 9.8995 4.74068 9.95987 5.12775 9.95987C5.48287 9.95987 5.78471 9.91193 6.03329 9.81605C6.28542 9.72017 6.47896 9.587 6.6139 9.41655C6.74885 9.24609 6.81809 9.05078 6.82164 8.83061C6.81809 8.62464 6.75417 8.44886 6.62988 8.30327C6.50559 8.15412 6.31383 8.02628 6.0546 7.91974C5.79892 7.80966 5.47221 7.70845 5.07448 7.61612L3.93457 7.34979C2.98997 7.13317 2.246 6.78338 1.70268 6.30043C1.15936 5.81392 0.88947 5.15696 0.893021 4.32955C0.88947 3.65483 1.07058 3.06357 1.43635 2.55575C1.80211 2.04794 2.30815 1.65199 2.95446 1.3679C3.60076 1.08381 4.33762 0.941761 5.16504 0.941761C6.01021 0.941761 6.74352 1.08558 7.36497 1.37322C7.98997 1.65732 8.4747 2.05682 8.81916 2.57173C9.16362 3.08665 9.3394 3.68324 9.3465 4.36151H6.82164ZM14.6466 12.1545C13.7872 12.1545 13.0486 11.9787 12.4307 11.6271C11.8163 11.272 11.3422 10.7784 11.0084 10.1463C10.6782 9.51065 10.513 8.77379 10.513 7.93572C10.513 7.0941 10.6782 6.35724 11.0084 5.72514C11.3422 5.08949 11.8163 4.59588 12.4307 4.24432C13.0486 3.8892 13.7872 3.71165 14.6466 3.71165C15.5059 3.71165 16.2428 3.8892 16.8572 4.24432C17.4751 4.59588 17.9491 5.08949 18.2794 5.72514C18.6132 6.35724 18.7801 7.0941 18.7801 7.93572C18.7801 8.77379 18.6132 9.51065 18.2794 10.1463C17.9491 10.7784 17.4751 11.272 16.8572 11.6271C16.2428 11.9787 15.5059 12.1545 14.6466 12.1545ZM14.6626 10.1889C14.9751 10.1889 15.2396 10.093 15.4562 9.90128C15.6729 9.70952 15.838 9.44318 15.9516 9.10227C16.0688 8.76136 16.1274 8.36719 16.1274 7.91974C16.1274 7.4652 16.0688 7.06747 15.9516 6.72656C15.838 6.38565 15.6729 6.11932 15.4562 5.92756C15.2396 5.7358 14.9751 5.63991 14.6626 5.63991C14.3394 5.63991 14.066 5.7358 13.8422 5.92756C13.6221 6.11932 13.4534 6.38565 13.3362 6.72656C13.2226 7.06747 13.1657 7.4652 13.1657 7.91974C13.1657 8.36719 13.2226 8.76136 13.3362 9.10227C13.4534 9.44318 13.6221 9.70952 13.8422 9.90128C14.066 10.093 14.3394 10.1889 14.6626 10.1889ZM20.1144 12V3.81818H22.5914V5.32031H22.6819C22.8524 4.82315 23.14 4.43075 23.5448 4.14311C23.9497 3.85547 24.4326 3.71165 24.9937 3.71165C25.5619 3.71165 26.0484 3.85724 26.4532 4.14844C26.858 4.43963 27.1155 4.83026 27.2256 5.32031H27.3108C27.4635 4.83381 27.7618 4.44496 28.2057 4.15376C28.6496 3.85902 29.1734 3.71165 29.7771 3.71165C30.5512 3.71165 31.1798 3.96023 31.6627 4.45739C32.1457 4.95099 32.3872 5.62926 32.3872 6.49219V12H29.7824V7.08878C29.7824 6.6804 29.6776 6.36967 29.4681 6.15661C29.2586 5.93999 28.9869 5.83168 28.6531 5.83168C28.2945 5.83168 28.0122 5.94886 27.8062 6.18324C27.6038 6.41406 27.5026 6.72479 27.5026 7.11541V12H24.999V7.06214C24.999 6.68217 24.896 6.3821 24.6901 6.16193C24.4841 5.94176 24.2124 5.83168 23.8751 5.83168C23.6478 5.83168 23.4472 5.88672 23.2732 5.9968C23.0992 6.10334 22.9624 6.25604 22.863 6.4549C22.7671 6.65376 22.7192 6.88814 22.7192 7.15803V12H20.1144ZM37.8257 12.1545C36.9699 12.1545 36.2313 11.9858 35.6098 11.6484C34.9919 11.3075 34.5161 10.8228 34.1823 10.1942C33.852 9.56214 33.6869 8.81108 33.6869 7.94105C33.6869 7.09588 33.8538 6.35724 34.1876 5.72514C34.5214 5.08949 34.9919 4.59588 35.5992 4.24432C36.2064 3.8892 36.922 3.71165 37.7458 3.71165C38.3282 3.71165 38.8609 3.8022 39.3438 3.98331C39.8268 4.16442 40.2441 4.43253 40.5956 4.78764C40.9472 5.14276 41.2206 5.58132 41.4159 6.10334C41.6112 6.6218 41.7089 7.21662 41.7089 7.88778V8.53764H34.5977V7.02486H39.2852C39.2817 6.74787 39.216 6.50107 39.0882 6.28445C38.9603 6.06783 38.7845 5.89915 38.5608 5.77841C38.3406 5.65412 38.0867 5.59197 37.7991 5.59197C37.5079 5.59197 37.2469 5.65767 37.0161 5.78906C36.7852 5.9169 36.6024 6.09268 36.4674 6.31641C36.3325 6.53658 36.2615 6.78693 36.2543 7.06747V8.60689C36.2543 8.9407 36.32 9.23366 36.4514 9.4858C36.5828 9.73437 36.7693 9.92791 37.0107 10.0664C37.2522 10.2049 37.5399 10.2741 37.8737 10.2741C38.1045 10.2741 38.314 10.2422 38.5022 10.1783C38.6904 10.1143 38.852 10.0202 38.9869 9.89595C39.1219 9.77166 39.2231 9.61896 39.2906 9.43785L41.6823 9.5071C41.5828 10.0433 41.3644 10.5103 41.0271 10.908C40.6933 11.3022 40.2547 11.6094 39.7114 11.8295C39.1681 12.0462 38.5395 12.1545 37.8257 12.1545ZM43.0392 1.09091H46.3045L49.0744 7.84517H49.2022L51.9721 1.09091H55.2374V12H52.6699V5.29901H52.5794L49.9586 11.9308H48.318L45.6973 5.26172H45.6067V12H43.0392V1.09091ZM59.1885 12.1385C58.6665 12.1385 58.203 12.0515 57.7982 11.8775C57.3969 11.6999 57.0791 11.4336 56.8447 11.0785C56.6139 10.7198 56.4985 10.2706 56.4985 9.73082C56.4985 9.27628 56.5784 8.89276 56.7382 8.58026C56.898 8.26776 57.1182 8.01385 57.3987 7.81854C57.6792 7.62322 58.0024 7.47585 58.3682 7.37642C58.7339 7.27344 59.1246 7.20419 59.54 7.16868C60.0052 7.12607 60.3799 7.08168 60.664 7.03551C60.9481 6.9858 61.154 6.91655 61.2819 6.82777C61.4133 6.73544 61.479 6.60582 61.479 6.43892V6.41229C61.479 6.13885 61.3849 5.92756 61.1966 5.77841C61.0084 5.62926 60.7545 5.55469 60.4349 5.55469C60.0905 5.55469 59.8135 5.62926 59.604 5.77841C59.3944 5.92756 59.2613 6.13352 59.2045 6.39631L56.8021 6.31108C56.8731 5.81392 57.056 5.37003 57.3508 4.9794C57.6491 4.58523 58.0574 4.27628 58.5759 4.05256C59.0979 3.82528 59.7247 3.71165 60.4562 3.71165C60.9782 3.71165 61.4594 3.77379 61.8998 3.89808C62.3401 4.01882 62.7236 4.19638 63.0503 4.43075C63.377 4.66158 63.6292 4.94567 63.8067 5.28303C63.9878 5.62038 64.0784 6.00568 64.0784 6.43892V12H61.6281V10.8601H61.5642C61.4186 11.1371 61.2322 11.3714 61.0049 11.5632C60.7812 11.755 60.5166 11.8988 60.2112 11.9947C59.9094 12.0906 59.5684 12.1385 59.1885 12.1385ZM59.9928 10.4339C60.2733 10.4339 60.5255 10.3771 60.7492 10.2635C60.9765 10.1499 61.1576 9.99361 61.2925 9.79474C61.4275 9.59233 61.4949 9.35795 61.4949 9.09162V8.31392C61.4204 8.35298 61.3298 8.38849 61.2233 8.42045C61.1203 8.45241 61.0067 8.4826 60.8824 8.51101C60.7581 8.53942 60.6302 8.56428 60.4988 8.58558C60.3675 8.60689 60.2414 8.62642 60.1206 8.64418C59.8756 8.68324 59.6661 8.74361 59.4921 8.82528C59.3216 8.90696 59.1903 9.01349 59.0979 9.14489C59.0091 9.27273 58.9648 9.42543 58.9648 9.60298C58.9648 9.87287 59.0606 10.0788 59.2524 10.2209C59.4477 10.3629 59.6945 10.4339 59.9928 10.4339ZM70.2893 3.81818V5.7358H65.1278V3.81818H70.2893ZM66.2091 1.85795H68.8138V9.4272C68.8138 9.587 68.8387 9.71662 68.8884 9.81605C68.9417 9.91193 69.018 9.98118 69.1175 10.0238C69.2169 10.0629 69.3358 10.0824 69.4743 10.0824C69.5738 10.0824 69.6785 10.0735 69.7886 10.0558C69.9023 10.0344 69.9875 10.0167 70.0443 10.0025L70.4385 11.8828C70.3142 11.9183 70.1384 11.9627 69.9111 12.016C69.6874 12.0692 69.4193 12.103 69.1068 12.1172C68.496 12.1456 67.9722 12.0746 67.5354 11.9041C67.1022 11.7301 66.7702 11.4602 66.5393 11.0945C66.3121 10.7287 66.202 10.2688 66.2091 9.71484V1.85795ZM75.355 12.1545C74.4992 12.1545 73.7606 11.9858 73.1391 11.6484C72.5212 11.3075 72.0454 10.8228 71.7116 10.1942C71.3813 9.56214 71.2162 8.81108 71.2162 7.94105C71.2162 7.09588 71.3831 6.35724 71.7169 5.72514C72.0507 5.08949 72.5212 4.59588 73.1285 4.24432C73.7357 3.8892 74.4513 3.71165 75.2751 3.71165C75.8575 3.71165 76.3902 3.8022 76.8731 3.98331C77.3561 4.16442 77.7733 4.43253 78.1249 4.78764C78.4765 5.14276 78.7499 5.58132 78.9452 6.10334C79.1405 6.6218 79.2382 7.21662 79.2382 7.88778V8.53764H72.127V7.02486H76.8145C76.811 6.74787 76.7453 6.50107 76.6175 6.28445C76.4896 6.06783 76.3138 5.89915 76.0901 5.77841C75.8699 5.65412 75.616 5.59197 75.3284 5.59197C75.0372 5.59197 74.7762 5.65767 74.5454 5.78906C74.3145 5.9169 74.1317 6.09268 73.9967 6.31641C73.8618 6.53658 73.7907 6.78693 73.7836 7.06747V8.60689C73.7836 8.9407 73.8493 9.23366 73.9807 9.4858C74.1121 9.73437 74.2986 9.92791 74.54 10.0664C74.7815 10.2049 75.0692 10.2741 75.403 10.2741C75.6338 10.2741 75.8433 10.2422 76.0315 10.1783C76.2197 10.1143 76.3813 10.0202 76.5162 9.89595C76.6512 9.77166 76.7524 9.61896 76.8199 9.43785L79.2116 9.5071C79.1121 10.0433 78.8937 10.5103 78.5564 10.908C78.2226 11.3022 77.784 11.6094 77.2407 11.8295C76.6974 12.0462 76.0688 12.1545 75.355 12.1545Z" fill="#8EC9FF"/>
</svg>
